<?xml version="1.0" encoding="UTF-8" standalone="no"?>
<!DOCTYPE svg PUBLIC "-//W3C//DTD SVG 1.1//EN" "http://www.w3.org/Graphics/SVG/1.1/DTD/svg11.dtd">
<svg width="100%" height="100%" viewBox="0 0 2493 1182" version="1.1" xmlns="http://www.w3.org/2000/svg" xmlns:xlink="http://www.w3.org/1999/xlink" xml:space="preserve" xmlns:serif="http://www.serif.com/" style="fill-rule:evenodd;clip-rule:evenodd;stroke-miterlimit:1.5;">
    <g transform="matrix(1,0,0,1,-1697.46,-1733.19)">
        <g id="Logo-Horizontal" serif:id="Logo Horizontal" transform="matrix(2.10989,0,0,0.999947,-4073.05,1601.31)">
            <rect x="2734.98" y="131.89" width="1181.17" height="1181.17" style="fill:none;"/>
            <clipPath id="_clip1">
                <rect x="2734.98" y="131.89" width="1181.17" height="1181.17"/>
            </clipPath>
            <g clip-path="url(#_clip1)">
                <g id="Icon" transform="matrix(0.971564,0,0,1,77.7721,0)">
                    <g transform="matrix(1.70165,0,0,3.48839,2070.88,-8050.4)">
                        <path d="M559.572,2345.58C653.012,2345.58 728.872,2421.44 728.872,2514.88C728.872,2608.32 653.012,2684.18 559.572,2684.18C466.133,2684.18 390.273,2608.32 390.273,2514.88C390.273,2421.44 466.133,2345.58 559.572,2345.58ZM559.572,2363.5C643.123,2363.5 710.955,2431.33 710.955,2514.88C710.955,2598.43 643.123,2666.26 559.572,2666.26C476.022,2666.26 408.19,2598.43 408.19,2514.88C408.19,2431.33 476.022,2363.5 559.572,2363.5Z" style="fill:rgb(0,29,117);"/>
                    </g>
                    <g transform="matrix(1.02099,0,0,2.09303,2451.75,-4541.3)">
                        <path d="M559.572,2345.58C653.012,2345.58 728.872,2421.44 728.872,2514.88C728.872,2608.32 653.012,2684.18 559.572,2684.18" style="fill:none;stroke:rgb(60,161,255);stroke-width:59.73px;"/>
                    </g>
                    <g transform="matrix(1.02099,0,0,2.09303,2451.75,-4541.25)">
                        <path d="M559.572,2315.72C449.652,2315.72 360.41,2404.96 360.41,2514.88C360.41,2624.8 449.652,2714.04 559.572,2714.04C669.493,2714.04 758.735,2624.8 758.735,2514.88C758.735,2404.96 669.493,2315.72 559.572,2315.72ZM559.572,2345.58C653.012,2345.58 728.872,2421.44 728.872,2514.88C728.872,2608.32 653.012,2684.18 559.572,2684.18C466.133,2684.18 390.273,2608.32 390.273,2514.88C390.273,2421.44 466.133,2345.58 559.572,2345.58Z" style="fill:rgb(0,29,117);"/>
                    </g>
                </g>
                <g transform="matrix(0.562352,0,0,1.39652,1622.98,-97.2588)">
                    <path d="M3213.9,381.667C3213.9,394.095 3210.18,405.02 3202.75,414.441C3195.32,423.863 3184.58,431.179 3170.55,436.391C3156.51,441.603 3139.82,444.209 3120.47,444.209C3082.72,444.209 3052.76,434.988 3030.58,416.546L3053.23,395.197C3071.63,409.63 3094.05,416.847 3120.47,416.847C3135.1,416.847 3147.19,413.94 3156.74,408.127C3166.3,402.314 3171.08,394.095 3171.08,383.471C3171.08,377.257 3169.6,372.045 3166.65,367.835C3163.7,363.626 3158.69,359.867 3151.61,356.56C3144.53,353.252 3134.39,349.895 3121.18,346.487C3094.05,339.671 3074.11,331.553 3061.37,322.132C3048.63,312.71 3042.26,300.282 3042.26,284.847C3042.26,273.822 3045.86,264.05 3053.05,255.53C3060.25,247.011 3070.22,240.396 3082.96,235.685C3095.7,230.975 3110.09,228.619 3126.13,228.619C3158.93,228.619 3186.18,236.938 3207.88,253.576L3186.29,274.323C3169.54,262.095 3150.32,255.981 3128.61,255.981C3115.4,255.981 3104.72,258.287 3096.58,262.897C3088.44,267.508 3084.37,274.123 3084.37,282.742C3084.37,288.154 3086.09,292.765 3089.51,296.574C3092.93,300.382 3098.71,303.84 3106.85,306.947C3114.99,310.054 3126.49,313.512 3141.35,317.321C3164.94,323.334 3182.93,331.052 3195.32,340.473C3207.7,349.895 3213.9,363.626 3213.9,381.667Z" style="fill:rgb(0,29,117);fill-rule:nonzero;"/>
                    <path d="M3409.95,440.3L3361.82,440.3L3337.76,286.651L3312.63,440.3L3263.8,440.3L3232.65,232.829L3272.29,232.829L3291.4,406.623L3317.59,256.883L3359.7,256.883L3384.12,406.623L3406.76,232.829L3443.57,232.829L3409.95,440.3Z" style="fill:rgb(0,29,117);fill-rule:nonzero;"/>
                    <path d="M3624.05,259.289L3570.97,259.289L3570.97,413.539L3624.05,413.539L3624.05,440.3L3476.84,440.3L3476.84,413.539L3529.92,413.539L3529.92,259.289L3476.84,259.289L3476.84,232.829L3624.05,232.829L3624.05,259.289Z" style="fill:rgb(0,29,117);fill-rule:nonzero;"/>
                    <path d="M3850.89,381.667C3850.89,394.095 3847.18,405.02 3839.74,414.441C3832.31,423.863 3821.58,431.179 3807.54,436.391C3793.5,441.603 3776.81,444.209 3757.47,444.209C3719.72,444.209 3689.76,434.988 3667.58,416.546L3690.23,395.197C3708.63,409.63 3731.04,416.847 3757.47,416.847C3772.09,416.847 3784.18,413.94 3793.74,408.127C3803.3,402.314 3808.07,394.095 3808.07,383.471C3808.07,377.257 3806.6,372.045 3803.65,367.835C3800.7,363.626 3795.69,359.867 3788.61,356.56C3781.53,353.252 3771.39,349.895 3758.18,346.487C3731.04,339.671 3711.11,331.553 3698.37,322.132C3685.63,312.71 3679.26,300.282 3679.26,284.847C3679.26,273.822 3682.86,264.05 3690.05,255.53C3697.25,247.011 3707.22,240.396 3719.95,235.685C3732.7,230.975 3747.09,228.619 3763.13,228.619C3795.92,228.619 3823.17,236.938 3844.88,253.576L3823.29,274.323C3806.54,262.095 3787.31,255.981 3765.61,255.981C3752.39,255.981 3741.72,258.287 3733.58,262.897C3725.44,267.508 3721.37,274.123 3721.37,282.742C3721.37,288.154 3723.08,292.765 3726.5,296.574C3729.92,300.382 3735.7,303.84 3743.84,306.947C3751.98,310.054 3763.48,313.512 3778.35,317.321C3801.94,323.334 3819.93,331.052 3832.31,340.473C3844.7,349.895 3850.89,363.626 3850.89,381.667Z" style="fill:rgb(0,29,117);fill-rule:nonzero;"/>
                    <path d="M4063.22,381.667C4063.22,394.095 4059.51,405.02 4052.08,414.441C4044.65,423.863 4033.91,431.179 4019.87,436.391C4005.84,441.603 3989.14,444.209 3969.8,444.209C3932.05,444.209 3902.09,434.988 3879.91,416.546L3902.56,395.197C3920.96,409.63 3943.38,416.847 3969.8,416.847C3984.43,416.847 3996.52,413.94 4006.07,408.127C4015.63,402.314 4020.41,394.095 4020.41,383.471C4020.41,377.257 4018.93,372.045 4015.98,367.835C4013.03,363.626 4008.02,359.867 4000.94,356.56C3993.86,353.252 3983.72,349.895 3970.51,346.487C3943.38,339.671 3923.44,331.553 3910.7,322.132C3897.96,312.71 3891.59,300.282 3891.59,284.847C3891.59,273.822 3895.19,264.05 3902.38,255.53C3909.58,247.011 3919.55,240.396 3932.29,235.685C3945.03,230.975 3959.42,228.619 3975.46,228.619C4008.26,228.619 4035.5,236.938 4057.21,253.576L4035.62,274.323C4018.87,262.095 3999.64,255.981 3977.94,255.981C3964.73,255.981 3954.05,258.287 3945.91,262.897C3937.77,267.508 3933.7,274.123 3933.7,282.742C3933.7,288.154 3935.41,292.765 3938.83,296.574C3942.26,300.382 3948.04,303.84 3956.17,306.947C3964.31,310.054 3975.82,313.512 3990.68,317.321C4014.27,323.334 4032.26,331.052 4044.65,340.473C4057.03,349.895 4063.22,363.626 4063.22,381.667Z" style="fill:rgb(0,29,117);fill-rule:nonzero;"/>
                    <path d="M3213.9,632.236C3213.9,644.664 3210.18,655.589 3202.75,665.01C3195.32,674.431 3184.58,681.748 3170.55,686.96C3156.51,692.172 3139.82,694.778 3120.47,694.778C3082.72,694.778 3052.76,685.557 3030.58,667.115L3053.23,645.766C3071.63,660.199 3094.05,667.415 3120.47,667.415C3135.1,667.415 3147.19,664.509 3156.74,658.696C3166.3,652.882 3171.08,644.664 3171.08,634.04C3171.08,627.826 3169.6,622.614 3166.65,618.404C3163.7,614.195 3158.69,610.436 3151.61,607.129C3144.53,603.821 3134.39,600.463 3121.18,597.056C3094.05,590.24 3074.11,582.122 3061.37,572.7C3048.63,563.279 3042.26,550.851 3042.26,535.416C3042.26,524.391 3045.86,514.619 3053.05,506.099C3060.25,497.58 3070.22,490.965 3082.96,486.254C3095.7,481.543 3110.09,479.188 3126.13,479.188C3158.93,479.188 3186.18,487.507 3207.88,504.145L3186.29,524.892C3169.54,512.664 3150.32,506.55 3128.61,506.55C3115.4,506.55 3104.72,508.856 3096.58,513.466C3088.44,518.076 3084.37,524.691 3084.37,533.311C3084.37,538.723 3086.09,543.334 3089.51,547.142C3092.93,550.951 3098.71,554.409 3106.85,557.516C3114.99,560.623 3126.49,564.081 3141.35,567.89C3164.94,573.903 3182.93,581.621 3195.32,591.042C3207.7,600.463 3213.9,614.195 3213.9,632.236Z" style="fill:rgb(0,29,117);fill-rule:nonzero;"/>
                    <path d="M3431.54,548.646C3431.54,571.899 3423.04,589.088 3406.06,600.213C3389.07,611.338 3365.83,616.901 3336.34,616.901L3306.62,616.901L3306.62,690.869L3265.92,690.869L3265.92,483.398L3333.51,483.398C3364.89,483.398 3389.07,488.86 3406.06,499.785C3423.04,510.71 3431.54,526.997 3431.54,548.646ZM3388.72,548.646C3388.72,522.587 3371.26,509.557 3336.34,509.557L3306.62,509.557L3306.62,590.441L3336.7,590.441C3353.21,590.441 3366.01,587.233 3375.09,580.819C3384.18,574.404 3388.72,563.68 3388.72,548.646Z" style="fill:rgb(0,29,117);fill-rule:nonzero;"/>
                    <path d="M3637.5,543.534C3637.5,557.967 3632.43,569.994 3622.28,579.616C3612.14,589.238 3598.69,596.254 3581.94,600.664L3651.3,690.869L3603.53,690.869L3541.95,605.475L3515.41,605.475L3515.41,690.869L3474.36,690.869L3474.36,483.398L3542.3,483.398C3605.77,483.398 3637.5,503.443 3637.5,543.534ZM3594.68,543.534C3594.68,531.507 3590.61,522.787 3582.47,517.375C3574.33,511.963 3561.77,509.256 3544.78,509.256L3515.41,509.256L3515.41,579.917L3545.84,579.917C3561.89,579.917 3574.04,577.01 3582.29,571.197C3590.55,565.384 3594.68,556.163 3594.68,543.534Z" style="fill:rgb(0,29,117);fill-rule:nonzero;"/>
                    <path d="M3718.54,640.955L3701.55,690.869L3659.44,690.869L3737.3,483.398L3788.26,483.398L3866.11,690.869L3822.58,690.869L3805.6,640.955L3718.54,640.955ZM3797.1,613.894L3762.07,510.459L3727.03,613.894L3797.1,613.894Z" style="fill:rgb(0,29,117);fill-rule:nonzero;"/>
                    <path d="M3995.63,690.869L3954.58,690.869L3954.58,611.789L3872.83,483.398L3918.13,483.398L3975.82,581.721L4034.21,483.398L4077.38,483.398L3995.63,611.489L3995.63,690.869Z" style="fill:rgb(0,29,117);fill-rule:nonzero;"/>
                    <path d="M3214.96,881.602C3214.96,903.05 3205.99,918.385 3188.06,927.606C3170.13,936.827 3147.37,941.438 3119.76,941.438L3048.28,941.438L3048.28,733.967L3115.16,733.967C3141.11,733.967 3162.47,738.026 3179.22,746.144C3195.97,754.263 3204.34,767.743 3204.34,786.586C3204.34,798.613 3200.04,808.486 3191.43,816.203C3182.81,823.921 3172.02,828.982 3159.04,831.388C3175.09,833.793 3188.42,838.855 3199.03,846.572C3209.65,854.29 3214.96,865.966 3214.96,881.602ZM3162.58,789.292C3162.58,779.069 3158.87,771.652 3151.44,767.042C3144,762.431 3133.09,760.126 3118.7,760.126L3089.33,760.126L3089.33,819.962L3121.18,819.962C3135.1,819.962 3145.48,817.506 3152.32,812.595C3159.16,807.684 3162.58,799.916 3162.58,789.292ZM3172.14,881.602C3172.14,868.572 3167.89,859.401 3159.4,854.089C3150.91,848.777 3139.11,846.121 3124.01,846.121L3089.33,846.121L3089.33,914.376L3122.59,914.376C3155.62,914.376 3172.14,903.451 3172.14,881.602Z" style="fill:rgb(0,29,117);fill-rule:nonzero;"/>
                    <path d="M3425.17,794.103C3425.17,808.536 3420.1,820.563 3409.95,830.185C3399.81,839.807 3386.36,846.823 3369.61,851.233L3438.97,941.438L3391.19,941.438L3329.62,856.044L3303.08,856.044L3303.08,941.438L3262.03,941.438L3262.03,733.967L3329.97,733.967C3393.43,733.967 3425.17,754.012 3425.17,794.103ZM3382.35,794.103C3382.35,782.076 3378.28,773.356 3370.14,767.944C3362,762.531 3349.43,759.825 3332.45,759.825L3303.08,759.825L3303.08,830.486L3333.51,830.486C3349.55,830.486 3361.7,827.579 3369.96,821.766C3378.22,815.953 3382.35,806.732 3382.35,794.103Z" style="fill:rgb(0,29,117);fill-rule:nonzero;"/>
                    <path d="M3635.02,873.483C3635.02,887.515 3631.66,899.943 3624.94,910.768C3618.21,921.593 3608.48,930.062 3595.74,936.176C3583,942.29 3567.78,945.346 3550.09,945.346C3523.43,945.346 3502.73,938.832 3487.98,925.802C3473.24,912.773 3465.86,895.333 3465.86,873.483L3465.86,733.967L3506.91,733.967L3506.91,866.868C3506.91,884.107 3510.39,896.886 3517.36,905.205C3524.31,913.524 3535.23,917.684 3550.09,917.684C3565.19,917.684 3576.22,913.524 3583.18,905.205C3590.14,896.886 3593.62,884.107 3593.62,866.868L3593.62,733.967L3635.02,733.967L3635.02,873.483Z" style="fill:rgb(0,29,117);fill-rule:nonzero;"/>
                    <path d="M3850.89,882.804C3850.89,895.233 3847.18,906.158 3839.74,915.579C3832.31,925 3821.58,932.317 3807.54,937.529C3793.5,942.741 3776.81,945.346 3757.47,945.346C3719.72,945.346 3689.76,936.126 3667.58,917.684L3690.23,896.335C3708.63,910.768 3731.04,917.984 3757.47,917.984C3772.09,917.984 3784.18,915.078 3793.74,909.265C3803.3,903.451 3808.07,895.233 3808.07,884.609C3808.07,878.394 3806.6,873.183 3803.65,868.973C3800.7,864.764 3795.69,861.005 3788.61,857.697C3781.53,854.39 3771.39,851.032 3758.18,847.625C3731.04,840.809 3711.11,832.691 3698.37,823.269C3685.63,813.848 3679.26,801.42 3679.26,785.985C3679.26,774.96 3682.86,765.187 3690.05,756.668C3697.25,748.149 3707.22,741.534 3719.95,736.823C3732.7,732.112 3747.09,729.757 3763.13,729.757C3795.92,729.757 3823.17,738.076 3844.88,754.714L3823.29,775.461C3806.54,763.233 3787.31,757.119 3765.61,757.119C3752.39,757.119 3741.72,759.424 3733.58,764.035C3725.44,768.645 3721.37,775.26 3721.37,783.88C3721.37,789.292 3723.08,793.903 3726.5,797.711C3729.92,801.52 3735.7,804.978 3743.84,808.085C3751.98,811.192 3763.48,814.65 3778.35,818.458C3801.94,824.472 3819.93,832.19 3832.31,841.611C3844.7,851.032 3850.89,864.764 3850.89,882.804Z" style="fill:rgb(0,29,117);fill-rule:nonzero;"/>
                    <path d="M4015.1,847.023L3935.12,847.023L3935.12,941.438L3894.07,941.438L3894.07,733.967L3935.12,733.967L3935.12,818.458L4015.1,818.458L4015.1,733.967L4056.15,733.967L4056.15,941.438L4015.1,941.438L4015.1,847.023Z" style="fill:rgb(0,29,117);fill-rule:nonzero;"/>
                </g>
            </g>
        </g>
    </g>
</svg>
